
	<svg width="1360" height="1360">
		<circle id="ring_1" r="35" cx="680" cy="680" stroke-width="3" fill="none" stroke="green"></circle>
<circle id="ring_1" r="105" cx="680" cy="680" stroke-width="3" fill="none" stroke="green"></circle>
<path id="ring_1_path" d="M704.7487373415291,704.7487373415291 L754.2462120245875,754.2462120245875 M680.0,715.0 L680.0,785.0 M655.2512626584709,704.7487373415291 L605.7537879754125,754.2462120245875 M645.0,680.0 L575.0,680.0 M655.2512626584709,655.2512626584709 L605.7537879754125,605.7537879754125 M680.0,645.0 L680.0,575.0 M704.7487373415291,655.2512626584709 L754.2462120245875,605.7537879754125 M715.0,680.0 L785.0,680.0 M704.7487373415291,704.7487373415291 L754.2462120245875,754.2462120245875 " stroke="green" stroke-width="3"></path>
<circle id="ring_2" r="175" cx="680" cy="680" stroke-width="3" fill="none" stroke="green"></circle>
<path id="ring_2_path" d="M777.0073509136851,720.1817603983344 L841.6789181894752,746.9696006638907 M754.2462120245875,754.2462120245875 L803.7436867076458,803.7436867076458 M720.1817603983344,777.0073509136851 L746.9696006638907,841.6789181894752 M680.0,785.0 L680.0,855.0 M639.8182396016656,777.0073509136851 L613.0303993361093,841.6789181894752 M605.7537879754125,754.2462120245875 L556.2563132923542,803.7436867076458 M582.9926490863149,720.1817603983344 L518.3210818105248,746.9696006638908 M575.0,680.0 L505.0,680.0 M582.9926490863149,639.8182396016656 L518.3210818105248,613.0303993361093 M605.7537879754125,605.7537879754125 L556.2563132923542,556.2563132923542 M639.8182396016656,582.9926490863149 L613.0303993361093,518.3210818105248 M680.0,575.0 L680.0,505.0 M720.1817603983344,582.9926490863149 L746.9696006638908,518.3210818105249 M754.2462120245875,605.7537879754125 L803.7436867076458,556.2563132923542 M777.0073509136851,639.8182396016656 L841.6789181894752,613.0303993361093 M785.0,680.0 L855.0,680.0 M777.0073509136851,720.1817603983344 L841.6789181894752,746.9696006638908 " stroke="green" stroke-width="3"></path>
<circle id="ring_3" r="245" cx="680" cy="680" stroke-width="3" fill="none" stroke="green"></circle>
<path id="ring_3_path" d="M849.037019600587,725.2933328929412 L916.6518274408218,743.4106660501176 M831.5544456622767,767.5 L892.1762239271875,802.5 M803.7436867076458,803.7436867076458 L853.2411613907042,853.2411613907041 M767.5,831.5544456622767 L802.5,892.1762239271875 M725.2933328929412,849.037019600587 L743.4106660501176,916.6518274408218 M680.0,855.0 L680.0,925.0 M634.7066671070588,849.037019600587 L616.5893339498824,916.6518274408218 M592.5,831.5544456622767 L557.5,892.1762239271875 M556.2563132923542,803.7436867076458 L506.7588386092959,853.2411613907042 M528.4455543377233,767.5 L467.8237760728125,802.5 M510.962980399413,725.2933328929412 L443.3481725591783,743.4106660501177 M505.0,680.0 L435.0,680.0 M510.962980399413,634.7066671070588 L443.34817255917824,616.5893339498824 M528.4455543377233,592.5 L467.8237760728125,557.5 M556.2563132923542,556.2563132923542 L506.7588386092958,506.7588386092959 M592.4999999999999,528.4455543377233 L557.4999999999999,467.8237760728126 M634.7066671070589,510.962980399413 L616.5893339498824,443.34817255917824 M680.0,505.0 L680.0,435.0 M725.2933328929411,510.962980399413 L743.4106660501175,443.34817255917824 M767.5,528.4455543377233 L802.5,467.8237760728125 M803.7436867076458,556.2563132923542 L853.2411613907041,506.7588386092958 M831.5544456622767,592.4999999999999 L892.1762239271874,557.4999999999999 M849.037019600587,634.7066671070588 L916.6518274408218,616.5893339498824 M855.0,680.0 L925.0,679.9999999999999 M849.037019600587,725.2933328929411 L916.6518274408218,743.4106660501175 " stroke="green" stroke-width="3"></path>
<circle id="ring_4" r="315" cx="680" cy="680" stroke-width="3" fill="none" stroke="green"></circle>
<path id="ring_4_path" d="M920.2923936987914,727.7971288939514 L988.9473633270176,741.4534514350804 M906.3504854652653,773.7574409294471 L971.0220527410554,800.5452811950033 M883.7100550141236,816.1147070898026 L941.9129278753018,855.0046234011747 M853.2411613907042,853.2411613907041 L902.7386360737624,902.7386360737624 M816.1147070898026,883.7100550141236 L855.0046234011747,941.9129278753018 M773.7574409294471,906.3504854652653 L800.5452811950033,971.0220527410554 M727.7971288939515,920.2923936987914 L741.4534514350804,988.9473633270176 M680.0,925.0 L680.0,995.0 M632.2028711060486,920.2923936987914 L618.5465485649196,988.9473633270176 M586.242559070553,906.3504854652653 L559.4547188049967,971.0220527410554 M543.8852929101974,883.7100550141236 L504.99537659882526,941.9129278753016 M506.7588386092959,853.2411613907042 L457.26136392623755,902.7386360737624 M476.2899449858764,816.1147070898026 L418.08707212469824,855.0046234011747 M453.64951453473475,773.7574409294471 L388.97794725894465,800.5452811950033 M439.70760630120856,727.7971288939514 L371.05263667298243,741.4534514350804 M435.0,680.0 L365.0,680.0 M439.70760630120856,632.2028711060485 L371.05263667298243,618.5465485649196 M453.64951453473475,586.242559070553 L388.97794725894465,559.4547188049968 M476.28994498587645,543.8852929101974 L418.08707212469824,504.99537659882526 M506.7588386092958,506.7588386092959 L457.2613639262375,457.26136392623755 M543.8852929101974,476.28994498587645 L504.9953765988253,418.08707212469824 M586.242559070553,453.64951453473475 L559.4547188049968,388.97794725894465 M632.2028711060485,439.70760630120856 L618.5465485649195,371.05263667298243 M680.0,435.0 L679.9999999999999,365.0 M727.7971288939515,439.70760630120856 L741.4534514350804,371.05263667298243 M773.7574409294471,453.64951453473475 L800.5452811950033,388.9779472589447 M816.1147070898024,476.28994498587633 L855.0046234011745,418.0870721246982 M853.2411613907041,506.7588386092958 L902.7386360737624,457.2613639262375 M883.7100550141236,543.8852929101974 L941.9129278753018,504.9953765988253 M906.3504854652653,586.242559070553 L971.0220527410554,559.4547188049968 M920.2923936987914,632.2028711060484 L988.9473633270176,618.5465485649195 M925.0,679.9999999999999 L995.0,679.9999999999999 M920.2923936987914,727.7971288939514 L988.9473633270176,741.4534514350804 " stroke="green" stroke-width="3"></path>
<circle id="ring_5" r="385" cx="680" cy="680" stroke-width="3" fill="none" stroke="green"></circle>
<path id="ring_5_path" d="M991.1218272874685,729.2768564876727 L1060.260011129128,740.2272690404889 M979.5828026329734,777.3403532281084 L1046.156758773634,798.9715428343548 M960.6670551193358,823.0070074179572 L1023.0375118125216,854.7863423997255 M934.8403532281085,865.152354472129 L991.4715428343548,906.2973221326022 M902.7386360737624,902.7386360737624 L952.2361107568208,952.2361107568208 M865.152354472129,934.8403532281085 L906.2973221326022,991.4715428343548 M823.0070074179573,960.6670551193358 L854.7863423997255,1023.0375118125216 M777.3403532281085,979.5828026329734 L798.9715428343548,1046.156758773634 M729.2768564876727,991.1218272874685 L740.2272690404889,1060.260011129128 M680.0,995.0 L680.0,1065.0 M630.7231435123273,991.1218272874685 L619.7727309595111,1060.260011129128 M582.6596467718916,979.5828026329734 L561.0284571656452,1046.156758773634 M536.9929925820428,960.6670551193358 L505.21365760027453,1023.0375118125216 M494.847645527871,934.8403532281085 L453.7026778673979,991.4715428343548 M457.26136392623755,902.7386360737624 L407.7638892431792,952.2361107568208 M425.15964677189163,865.1523544721291 L368.52845716564525,906.2973221326022 M399.3329448806642,823.0070074179573 L336.9624881874784,854.7863423997255 M380.41719736702663,777.3403532281085 L313.8432412263659,798.9715428343548 M368.87817271253164,729.2768564876727 L299.739988870872,740.227269040489 M365.0,680.0 L295.0,680.0 M368.8781727125316,630.7231435123273 L299.73998887087197,619.7727309595111 M380.4171973670266,582.6596467718916 L313.8432412263659,561.0284571656452 M399.3329448806641,536.9929925820428 L336.96248818747836,505.21365760027453 M425.1596467718915,494.847645527871 L368.5284571656452,453.7026778673979 M457.2613639262375,457.26136392623755 L407.76388924317916,407.7638892431792 M494.8476455278709,425.15964677189163 L453.7026778673978,368.52845716564525 M536.9929925820427,399.3329448806642 L505.2136576002745,336.9624881874784 M582.6596467718915,380.41719736702663 L561.0284571656452,313.8432412263659 M630.7231435123272,368.87817271253164 L619.772730959511,299.739988870872 M679.9999999999999,365.0 L679.9999999999999,295.0 M729.2768564876726,368.8781727125316 L740.2272690404889,299.73998887087197 M777.3403532281084,380.4171973670266 L798.9715428343546,313.8432412263659 M823.0070074179572,399.3329448806641 L854.7863423997254,336.96248818747836 M865.152354472129,425.1596467718915 L906.2973221326021,368.5284571656452 M902.7386360737624,457.2613639262375 L952.2361107568207,407.76388924317916 M934.8403532281084,494.8476455278709 L991.4715428343548,453.70267786739777 M960.6670551193358,536.9929925820427 L1023.0375118125216,505.2136576002744 M979.5828026329734,582.6596467718915 L1046.156758773634,561.0284571656451 M991.1218272874684,630.7231435123272 L1060.260011129128,619.772730959511 M995.0,679.9999999999999 L1065.0,679.9999999999999 M991.1218272874685,729.2768564876726 L1060.260011129128,740.2272690404887 " stroke="green" stroke-width="3"></path>
<circle id="ring_6" r="455" cx="680" cy="680" stroke-width="3" fill="none" stroke="green"></circle>
<path id="ring_6_path" d="M1061.706271628917,730.2525840047199 L1131.1074119250839,739.3894174601235 M1051.8814431212913,779.6453323644705 L1119.4962509615261,797.7626655216469 M1035.6936200168454,827.3331214605596 L1100.3651872926355,854.1209617261159 M1013.419780457009,872.5 L1074.0415587219195,907.5 M985.4410360121256,914.3731501683575 L1040.975769832512,956.9864501989679 M952.2361107568208,952.2361107568208 L1001.7335854398791,1001.7335854398791 M914.3731501683575,985.4410360121256 L956.9864501989679,1040.975769832512 M872.5,1013.4197804570089 L907.5,1074.0415587219195 M827.3331214605596,1035.6936200168454 L854.1209617261159,1100.3651872926355 M779.6453323644705,1051.8814431212913 L797.7626655216469,1119.4962509615261 M730.2525840047199,1061.706271628917 L739.3894174601236,1131.1074119250839 M680.0,1065.0 L680.0,1135.0 M629.7474159952801,1061.706271628917 L620.6105825398765,1131.1074119250839 M580.3546676355295,1051.8814431212913 L562.237334478353,1119.4962509615261 M532.6668785394404,1035.6936200168454 L505.87903827388413,1100.3651872926355 M487.5000000000001,1013.419780457009 L452.5000000000001,1074.0415587219195 M445.6268498316425,985.4410360121256 L403.0135498010321,1040.975769832512 M407.7638892431792,952.2361107568208 L358.2664145601209,1001.7335854398791 M374.5589639878745,914.3731501683576 L319.02423016748804,956.986450198968 M346.5802195429911,872.5 L285.9584412780804,907.5 M324.3063799831546,827.3331214605596 L259.6348127073645,854.1209617261159 M308.1185568787087,779.6453323644706 L240.50374903847398,797.762665521647 M298.293728371083,730.2525840047199 L228.89258807491626,739.3894174601235 M295.0,680.0 L225.0,680.0 M298.293728371083,629.7474159952802 L228.8925880749162,620.6105825398766 M308.1185568787087,580.3546676355295 L240.50374903847393,562.237334478353 M324.30637998315456,532.6668785394405 L259.63481270736446,505.8790382738842 M346.58021954299113,487.49999999999994 L285.95844127808044,452.49999999999994 M374.55896398787445,445.6268498316425 L319.024230167488,403.0135498010321 M407.76388924317916,407.7638892431792 L358.2664145601208,358.2664145601209 M445.62684983164246,374.55896398787456 L403.013549801032,319.0242301674881 M487.49999999999983,346.58021954299124 L452.4999999999998,285.95844127808056 M532.6668785394405,324.30637998315456 L505.87903827388425,259.63481270736446 M580.3546676355295,308.1185568787087 L562.2373344783531,240.50374903847393 M629.7474159952801,298.293728371083 L620.6105825398765,228.89258807491626 M679.9999999999999,295.0 L679.9999999999999,225.0 M730.2525840047198,298.293728371083 L739.3894174601234,228.8925880749162 M779.6453323644703,308.11855687870866 L797.7626655216468,240.50374903847387 M827.3331214605596,324.30637998315467 L854.120961726116,259.6348127073646 M872.5,346.58021954299113 L907.5,285.95844127808044 M914.3731501683574,374.55896398787445 L956.9864501989679,319.024230167488 M952.2361107568207,407.76388924317916 L1001.7335854398791,358.2664145601208 M985.4410360121254,445.62684983164246 L1040.975769832512,403.013549801032 M1013.4197804570088,487.49999999999983 L1074.0415587219195,452.4999999999998 M1035.6936200168454,532.6668785394405 L1100.3651872926355,505.87903827388425 M1051.8814431212913,580.3546676355295 L1119.4962509615261,562.2373344783531 M1061.706271628917,629.7474159952801 L1131.1074119250839,620.6105825398765 M1065.0,679.9999999999999 L1135.0,679.9999999999999 M1061.706271628917,730.2525840047197 L1131.1074119250839,739.3894174601232 " stroke="green" stroke-width="3"></path>
<circle id="ring_7" r="525" cx="680" cy="680" stroke-width="3" fill="none" stroke="green"></circle>
<path id="ring_7_path" d="M1132.1390555014254,730.9438366270051 L1201.6989101939523,738.7813499542366 M1123.5922000427297,781.2470249501231 L1191.8371538954575,796.8234903270651 M1109.4669152903073,830.276973189601 L1175.538748411893,853.3965075264628 M1089.9408348956008,877.4171012984889 L1153.00865564877,907.788963036718 M1065.2595106488693,922.0745948144781 L1124.5302045948492,959.3168401705518 M1035.7333245229536,963.6878598457238 L1090.4615282957157,1007.3321459758351 M1001.7335854398791,1001.7335854398791 L1051.2310601229374,1051.2310601229374 M963.6878598457237,1035.7333245229536 L1007.332145975835,1090.4615282957157 M922.0745948144781,1065.2595106488693 L959.3168401705516,1124.5302045948492 M877.4171012984889,1089.9408348956008 L907.7889630367179,1153.0086556487702 M830.276973189601,1109.4669152903073 L853.3965075264626,1175.538748411893 M781.247024950123,1123.5922000427297 L796.823490327065,1191.8371538954575 M730.943836627005,1132.1390555014254 L738.7813499542366,1201.6989101939523 M679.9999999999999,1135.0 L679.9999999999999,1205.0 M629.0561633729949,1132.1390555014254 L621.2186500457633,1201.6989101939523 M578.7529750498768,1123.5922000427297 L563.1765096729348,1191.8371538954573 M529.7230268103988,1109.4669152903073 L506.60349247353713,1175.5387484118928 M482.5828987015109,1089.9408348956006 L452.2110369632818,1153.00865564877 M437.9254051855217,1065.2595106488693 L400.68315982944813,1124.5302045948492 M396.3121401542761,1035.7333245229534 L352.66785402416474,1090.4615282957157 M358.2664145601209,1001.7335854398791 L308.76893987706256,1051.2310601229374 M324.2666754770464,963.6878598457238 L269.53847170428435,1007.3321459758351 M294.7404893511308,922.0745948144784 L235.46979540515093,959.3168401705519 M270.05916510439937,877.4171012984891 L206.99134435123005,907.7889630367183 M250.5330847096929,830.2769731896014 L184.4612515881072,853.3965075264632 M236.40779995727036,781.2470249501235 L168.16284610454272,796.8234903270655 M227.86094449857472,730.9438366270057 L158.3010898060478,738.7813499542374 M225.0,680.0000000000007 L155.0,680.0000000000008 M227.8609444985745,629.0561633729958 L158.30108980604757,621.2186500457643 M236.40779995727007,578.7529750498778 L168.16284610454238,563.1765096729359 M250.5330847096924,529.7230268103999 L184.46125158810662,506.60349247353844 M270.05916510439886,482.582898701512 L206.99134435122943,452.2110369632831 M294.74048935113,437.9254051855229 L235.46979540515002,400.68315982944955 M324.2666754770456,396.31214015427724 L269.53847170428344,352.66785402416605 M358.26641456011987,358.2664145601219 L308.76893987706137,308.76893987706376 M396.31214015427526,324.2666754770473 L352.6678540241638,269.5384717042853 M437.92540518552045,294.7404893511316 L400.68315982944665,235.46979540515184 M482.5828987015095,270.05916510440005 L452.2110369632802,206.99134435123085 M529.7230268103974,250.5330847096933 L506.6034924735354,184.46125158810764 M578.7529750498753,236.40779995727064 L563.176509672933,168.16284610454306 M629.0561633729933,227.86094449857484 L621.2186500457615,158.3010898060479 M679.9999999999987,225.0 L679.9999999999985,155.0 M730.9438366270037,227.86094449857444 L738.7813499542351,158.30108980604746 M781.2470249501218,236.40779995726996 L796.8234903270636,168.16284610454227 M830.2769731896002,250.53308470969245 L853.3965075264617,184.46125158810668 M877.4171012984882,270.05916510439886 L907.7889630367171,206.9913443512295 M922.0745948144775,294.74048935113024 L959.3168401705509,235.46979540515025 M963.6878598457233,324.26667547704614 L1007.3321459758347,269.538471704284 M1001.7335854398788,358.2664145601205 L1051.2310601229372,308.7689398770621 M1035.7333245229534,396.3121401542759 L1090.4615282957152,352.66785402416446 M1065.2595106488693,437.92540518552175 L1124.5302045948492,400.6831598294482 M1089.9408348956008,482.58289870151094 L1153.00865564877,452.21103696328186 M1109.4669152903073,529.7230268103989 L1175.5387484118928,506.60349247353713 M1123.59220004273,578.7529750498773 L1191.8371538954575,563.1765096729353 M1132.1390555014254,629.0561633729952 L1201.6989101939523,621.2186500457638 M1135.0,680.0000000000003 L1205.0,680.0000000000003 " stroke="green" stroke-width="3"></path>
	</svg>
	