
	<svg width="1360" height="1360">
		<circle id="ring_1" r="40" cx="680" cy="680" stroke-width="3" fill="none" stroke="green"></circle>
<circle id="ring_1" r="120" cx="680" cy="680" stroke-width="3" fill="none" stroke="green"></circle>
<path id="ring_1_path" d="M708.2842712474619,708.2842712474619 L764.8528137423857,764.8528137423857 M680.0,720.0 L680.0,800.0 M651.7157287525381,708.2842712474619 L595.1471862576143,764.8528137423857 M640.0,680.0 L560.0,680.0 M651.7157287525381,651.7157287525381 L595.1471862576143,595.1471862576143 M680.0,640.0 L680.0,560.0 M708.2842712474619,651.7157287525381 L764.8528137423857,595.1471862576143 M720.0,680.0 L800.0,680.0 M708.2842712474619,708.2842712474619 L764.8528137423857,764.8528137423857 " stroke="green" stroke-width="3"></path>
<circle id="ring_2" r="200" cx="680" cy="680" stroke-width="3" fill="none" stroke="green"></circle>
<path id="ring_2_path" d="M790.8655439013544,725.9220118838108 L864.7759065022574,756.536686473018 M764.8528137423857,764.8528137423857 L821.4213562373095,821.4213562373095 M725.9220118838108,790.8655439013544 L756.536686473018,864.7759065022574 M680.0,800.0 L680.0,880.0 M634.0779881161892,790.8655439013544 L603.463313526982,864.7759065022574 M595.1471862576143,764.8528137423857 L538.5786437626905,821.4213562373095 M569.1344560986456,725.9220118838108 L495.2240934977426,756.536686473018 M560.0,680.0 L480.0,680.0 M569.1344560986456,634.0779881161892 L495.2240934977426,603.4633135269821 M595.1471862576143,595.1471862576143 L538.5786437626905,538.5786437626905 M634.0779881161893,569.1344560986456 L603.4633135269821,495.2240934977426 M680.0,560.0 L680.0,480.0 M725.9220118838108,569.1344560986456 L756.536686473018,495.2240934977427 M764.8528137423857,595.1471862576143 L821.4213562373095,538.5786437626905 M790.8655439013544,634.0779881161892 L864.7759065022574,603.4633135269821 M800.0,680.0 L880.0,680.0 M790.8655439013544,725.9220118838108 L864.7759065022574,756.536686473018 " stroke="green" stroke-width="3"></path>
<circle id="ring_3" r="280" cx="680" cy="680" stroke-width="3" fill="none" stroke="green"></circle>
<path id="ring_3_path" d="M873.1851652578137,731.7638090205041 L950.4592313609392,752.4693326287058 M853.2050807568878,780.0 L922.4871130596429,820.0 M821.4213562373095,821.4213562373095 L877.9898987322333,877.9898987322333 M780.0,853.2050807568877 L820.0,922.4871130596428 M731.7638090205041,873.1851652578137 L752.4693326287058,950.4592313609392 M680.0,880.0 L680.0,960.0 M628.2361909794959,873.1851652578137 L607.5306673712942,950.4592313609392 M580.0,853.2050807568878 L540.0,922.4871130596429 M538.5786437626905,821.4213562373095 L482.0101012677667,877.9898987322333 M506.79491924311225,780.0 L437.51288694035713,820.0 M486.81483474218635,731.7638090205043 L409.5407686390609,752.4693326287058 M480.0,680.0 L400.0,680.0 M486.81483474218635,628.2361909794959 L409.5407686390609,607.5306673712942 M506.7949192431123,580.0 L437.5128869403572,540.0 M538.5786437626905,538.5786437626905 L482.0101012677667,482.0101012677667 M579.9999999999999,506.7949192431123 L539.9999999999999,437.51288694035725 M628.2361909794959,486.81483474218635 L607.5306673712943,409.5407686390609 M680.0,480.0 L680.0,400.0 M731.763809020504,486.81483474218635 L752.4693326287057,409.54076863906084 M780.0,506.7949192431123 L820.0,437.5128869403572 M821.4213562373095,538.5786437626905 L877.9898987322333,482.0101012677667 M853.2050807568877,579.9999999999999 L922.4871130596428,539.9999999999999 M873.1851652578137,628.2361909794959 L950.4592313609392,607.5306673712942 M880.0,680.0 L960.0,679.9999999999999 M873.1851652578137,731.763809020504 L950.4592313609392,752.4693326287056 " stroke="green" stroke-width="3"></path>
<circle id="ring_4" r="360" cx="680" cy="680" stroke-width="3" fill="none" stroke="green"></circle>
<path id="ring_4_path" d="M954.6198785129045,734.625290164516 L1033.082700945163,750.2325159258062 M938.6862691031603,787.1513610622251 L1012.5966317040632,817.7660356514323 M912.8114914447126,835.5596652454886 L979.3290604289164,880.0052838870567 M877.9898987322333,877.9898987322333 L934.5584412271571,934.5584412271571 M835.5596652454886,912.8114914447126 L880.0052838870569,979.3290604289164 M787.1513610622252,938.6862691031603 L817.7660356514323,1012.5966317040632 M734.625290164516,954.6198785129045 L750.2325159258062,1033.082700945163 M680.0,960.0 L680.0,1040.0 M625.374709835484,954.6198785129045 L609.7674840741938,1033.082700945163 M572.8486389377749,938.6862691031603 L542.2339643485677,1012.5966317040632 M524.4403347545114,912.8114914447126 L479.99471611294314,979.3290604289163 M482.0101012677667,877.9898987322333 L425.4415587728429,934.5584412271571 M447.1885085552873,835.5596652454886 L380.6709395710837,880.0052838870567 M421.31373089683973,787.1513610622252 L347.4033682959368,817.7660356514324 M405.3801214870955,734.625290164516 L326.91729905483703,750.2325159258062 M400.0,680.0 L320.0,680.0 M405.3801214870955,625.374709835484 L326.91729905483703,609.7674840741938 M421.3137308968397,572.8486389377749 L347.40336829593673,542.2339643485677 M447.18850855528734,524.4403347545114 L380.6709395710837,479.99471611294314 M482.0101012677667,482.0101012677667 L425.4415587728428,425.4415587728429 M524.4403347545114,447.18850855528734 L479.99471611294325,380.6709395710837 M572.8486389377749,421.3137308968397 L542.2339643485677,347.40336829593673 M625.3747098354839,405.3801214870955 L609.7674840741937,326.9172990548371 M680.0,400.0 L679.9999999999999,320.0 M734.625290164516,405.3801214870955 L750.2325159258062,326.91729905483703 M787.1513610622252,421.31373089683973 L817.7660356514324,347.4033682959368 M835.5596652454885,447.1885085552873 L880.0052838870566,380.67093957108364 M877.9898987322333,482.0101012677667 L934.558441227157,425.4415587728428 M912.8114914447126,524.4403347545114 L979.3290604289164,479.99471611294325 M938.6862691031604,572.8486389377749 L1012.5966317040633,542.2339643485677 M954.6198785129045,625.3747098354839 L1033.082700945163,609.7674840741937 M960.0,679.9999999999999 L1040.0,679.9999999999999 M954.6198785129045,734.625290164516 L1033.082700945163,750.2325159258062 " stroke="green" stroke-width="3"></path>
<circle id="ring_5" r="440" cx="680" cy="680" stroke-width="3" fill="none" stroke="green"></circle>
<path id="ring_5_path" d="M1035.5678026142496,736.3164074144831 L1114.5828698618607,748.8311646177016 M1022.3803458662553,791.2461179749811 L1098.4648671698676,815.9674775249769 M1000.7623487078124,843.4365799062368 L1072.042870642882,879.7558198854006 M971.2461179749811,891.6026908252903 L1035.9674775249769,938.6255110086881 M934.5584412271571,934.5584412271571 L991.1269837220809,991.1269837220809 M891.6026908252903,971.2461179749811 L938.6255110086881,1035.9674775249769 M843.4365799062368,1000.7623487078124 L879.7558198854006,1072.0428706428818 M791.2461179749811,1022.3803458662553 L815.9674775249769,1098.4648671698676 M736.3164074144831,1035.5678026142496 L748.8311646177016,1114.5828698618607 M680.0,1040.0 L680.0,1120.0 M623.6835925855169,1035.5678026142496 L611.1688353822984,1114.5828698618607 M568.7538820250189,1022.3803458662553 L544.0325224750231,1098.4648671698676 M516.5634200937632,1000.7623487078124 L480.24418011459943,1072.042870642882 M468.3973091747097,971.2461179749811 L421.37448899131186,1035.9674775249769 M425.4415587728429,934.5584412271571 L368.87301627791913,991.1269837220809 M388.753882025019,891.6026908252904 L324.03252247502314,938.6255110086882 M359.2376512921876,843.4365799062368 L287.95712935711816,879.7558198854006 M337.61965413374475,791.2461179749811 L261.53513283013245,815.9674775249769 M324.43219738575044,736.3164074144831 L245.41713013813944,748.8311646177017 M320.0,680.0 L240.0,680.0 M324.4321973857504,623.683592585517 L245.41713013813938,611.1688353822985 M337.6196541337447,568.753882025019 L261.5351328301324,544.0325224750231 M359.23765129218754,516.5634200937632 L287.9571293571181,480.24418011459943 M388.75388202501887,468.3973091747097 L324.0325224750231,421.37448899131186 M425.4415587728428,425.4415587728429 L368.873016277919,368.87301627791913 M468.3973091747096,388.753882025019 L421.37448899131175,324.03252247502314 M516.5634200937632,359.2376512921876 L480.2441801145993,287.95712935711816 M568.7538820250189,337.61965413374475 L544.0325224750231,261.53513283013245 M623.6835925855169,324.43219738575044 L611.1688353822983,245.41713013813944 M679.9999999999999,320.0 L679.9999999999999,240.0 M736.316407414483,324.4321973857504 L748.8311646177015,245.41713013813938 M791.246117974981,337.6196541337447 L815.9674775249767,261.5351328301324 M843.4365799062368,359.23765129218754 L879.7558198854006,287.9571293571181 M891.6026908252902,388.75388202501887 L938.6255110086881,324.0325224750231 M934.558441227157,425.4415587728428 L991.1269837220808,368.873016277919 M971.246117974981,468.39730917470956 L1035.9674775249769,421.37448899131175 M1000.7623487078124,516.563420093763 L1072.0428706428818,480.2441801145993 M1022.3803458662553,568.7538820250188 L1098.4648671698676,544.032522475023 M1035.5678026142496,623.6835925855169 L1114.5828698618607,611.1688353822983 M1040.0,679.9999999999999 L1120.0,679.9999999999999 M1035.5678026142496,736.316407414483 L1114.5828698618607,748.8311646177015 " stroke="green" stroke-width="3"></path>
<circle id="ring_6" r="520" cx="680" cy="680" stroke-width="3" fill="none" stroke="green"></circle>
<path id="ring_6_path" d="M1116.2357390044765,737.4315245768227 L1195.5513279143815,747.8736199544268 M1105.0073635671902,793.8803798451091 L1182.2814296703154,814.5859034533107 M1086.5069943049662,848.3807102406395 L1160.4173569058692,878.9953848298467 M1061.051177665153,900.0 L1130.3332099679083,940.0 M1029.0754697281434,947.855028763837 L1092.5437369514423,996.5559430845348 M991.1269837220809,991.1269837220809 L1047.6955262170047,1047.6955262170047 M947.855028763837,1029.0754697281434 L996.5559430845348,1092.5437369514423 M900.0,1061.0511776651529 L940.0,1130.333209967908 M848.3807102406395,1086.5069943049662 L878.9953848298467,1160.4173569058692 M793.8803798451091,1105.0073635671902 L814.5859034533107,1182.2814296703154 M737.4315245768228,1116.2357390044765 L747.8736199544269,1195.5513279143815 M680.0,1120.0 L680.0,1200.0 M622.5684754231773,1116.2357390044765 L612.1263800455731,1195.5513279143815 M566.1196201548909,1105.0073635671902 L545.4140965466892,1182.2814296703154 M511.6192897593605,1086.5069943049662 L481.00461517015333,1160.4173569058692 M460.0000000000001,1061.051177665153 L420.0000000000001,1130.3332099679083 M412.1449712361629,1029.0754697281434 L363.44405691546524,1092.5437369514423 M368.87301627791913,991.1269837220809 L312.30447378299533,1047.6955262170047 M330.92453027185655,947.8550287638373 L267.4562630485578,996.5559430845349 M298.94882233484697,900.0 L229.66679003209185,940.0 M273.49300569503384,848.3807102406396 L199.5826430941309,878.9953848298468 M254.99263643281,793.8803798451092 L177.71857032968455,814.585903453311 M243.76426099552344,737.4315245768227 L164.44867208561857,747.8736199544268 M240.0,680.0 L160.0,680.0000000000001 M243.7642609955234,622.5684754231775 L164.44867208561857,612.1263800455733 M254.99263643280995,566.1196201548909 L177.7185703296845,545.4140965466892 M273.4930056950338,511.6192897593605 L199.58264309413084,481.00461517015333 M298.948822334847,459.99999999999994 L229.6667900320919,419.99999999999994 M330.92453027185655,412.1449712361629 L267.45626304855773,363.44405691546524 M368.873016277919,368.87301627791913 L312.3044737829952,312.30447378299533 M412.1449712361628,330.9245302718566 L363.4440569154651,267.45626304855784 M459.9999999999998,298.94882233484714 L419.9999999999998,229.66679003209202 M511.61928975936064,273.4930056950338 L481.00461517015344,199.58264309413084 M566.119620154891,254.99263643280995 L545.4140965466893,177.7185703296845 M622.5684754231772,243.76426099552344 L612.1263800455731,164.44867208561857 M679.9999999999999,240.0 L679.9999999999999,160.0 M737.4315245768225,243.7642609955234 L747.8736199544267,164.44867208561857 M793.8803798451089,254.9926364328099 L814.5859034533105,177.71857032968444 M848.3807102406396,273.4930056950339 L878.9953848298468,199.58264309413096 M900.0,298.948822334847 L940.0,229.6667900320919 M947.855028763837,330.92453027185655 L996.5559430845346,267.45626304855773 M991.1269837220808,368.873016277919 L1047.6955262170045,312.3044737829952 M1029.0754697281434,412.1449712361628 L1092.543736951442,363.4440569154651 M1061.0511776651529,459.9999999999998 L1130.333209967908,419.9999999999998 M1086.5069943049662,511.6192897593606 L1160.4173569058692,481.00461517015344 M1105.0073635671902,566.1196201548909 L1182.2814296703154,545.4140965466893 M1116.2357390044765,622.5684754231772 L1195.5513279143815,612.1263800455731 M1120.0,679.9999999999999 L1200.0,679.9999999999999 M1116.2357390044767,737.4315245768225 L1195.5513279143815,747.8736199544267 " stroke="green" stroke-width="3"></path>
<circle id="ring_7" r="600" cx="680" cy="680" stroke-width="3" fill="none" stroke="green"></circle>
<path id="ring_7_path" d="M1196.7303491444861,738.2215275737201 L1276.2273259359456,747.1786856619847 M1186.9625143345484,795.7108856572835 L1264.9567473090942,813.5125603737886 M1170.8193317603511,851.745112216687 L1246.3299981850205,878.1674371731003 M1148.503811309258,905.6195443411302 L1220.5813207414515,940.3302434705349 M1120.2965835987077,956.656679787975 L1188.0345195369705,999.2192459092021 M1086.5523708833755,1004.2146969665414 L1149.098889480818,1054.09388111524 M1047.6955262170047,1047.6955262170047 L1104.2640687119285,1104.2640687119285 M1004.2146969665414,1086.5523708833755 L1054.09388111524,1149.098889480818 M956.656679787975,1120.296583598708 L999.2192459092018,1188.0345195369705 M905.6195443411301,1148.503811309258 L940.3302434705347,1220.5813207414517 M851.7451122166868,1170.8193317603511 L878.1674371731001,1246.3299981850205 M795.7108856572834,1186.9625143345484 L813.5125603737886,1264.9567473090942 M738.22152757372,1196.7303491444861 L747.1786856619847,1276.2273259359456 M679.9999999999999,1200.0 L679.9999999999999,1280.0 M621.7784724262798,1196.7303491444861 L612.8213143380152,1276.2273259359456 M564.2891143427163,1186.9625143345484 L546.4874396262112,1264.9567473090942 M508.25488778331294,1170.8193317603511 L481.83256282689956,1246.3299981850205 M454.3804556588696,1148.5038113092578 L419.6697565294649,1220.5813207414512 M403.3433202120248,1120.2965835987077 L360.78075409079787,1188.0345195369705 M355.78530303345843,1086.5523708833753 L305.90611888475974,1149.098889480818 M312.30447378299533,1047.6955262170047 L255.73593128807153,1104.2640687119285 M273.4476291166245,1004.2146969665414 L210.9011105191821,1054.09388111524 M239.70341640129237,956.6566797879752 L171.96548046302968,999.2192459092022 M211.49618869074214,905.6195443411304 L139.41867925854865,940.3302434705352 M189.18066823964904,851.7451122166874 L113.67000181497963,878.1674371731008 M173.0374856654518,795.710885657284 L95.043252690906,813.5125603737893 M163.269650855514,738.2215275737208 L83.77267406405463,747.1786856619856 M160.0,680.0000000000008 L80.0,680.0000000000009 M163.26965085551376,621.7784724262809 L83.77267406405429,612.8213143380165 M173.03748566545147,564.2891143427175 L95.04325269090555,546.4874396262124 M189.18066823964847,508.2548877833143 L113.67000181497895,481.83256282690104 M211.49618869074152,454.3804556588709 L139.41867925854797,419.6697565294664 M239.70341640129146,403.3433202120262 L171.9654804630286,360.78075409079946 M273.4476291166236,355.7853030334597 L210.90111051918103,305.90611888476116 M312.3044737829941,312.30447378299647 L255.7359312880701,255.73593128807283 M355.7853030334574,273.4476291166254 L305.9061188847586,210.9011105191832 M403.34332021202334,239.70341640129323 L360.78075409079617,171.96548046303064 M454.3804556588681,211.49618869074288 L419.66975652946314,139.41867925854956 M508.2548877833113,189.1806682396495 L481.83256282689763,113.6700018149802 M564.2891143427146,173.03748566545215 L546.4874396262092,95.04325269090634 M621.778472426278,163.2696508555141 L612.821314338013,83.77267406405474 M679.9999999999985,160.0 L679.9999999999983,80.0 M738.2215275737186,163.26965085551365 L747.178685661983,83.77267406405429 M795.710885657282,173.03748566545136 L813.512560373787,95.04325269090543 M851.7451122166859,189.18066823964853 L878.1674371730992,113.67000181497906 M905.6195443411293,211.49618869074158 L940.3302434705338,139.41867925854797 M956.6566797879741,239.7034164012917 L999.2192459092009,171.96548046302888 M1004.2146969665409,273.44762911662417 L1054.0938811152396,210.9011105191817 M1047.6955262170043,312.3044737829949 L1104.264068711928,255.73593128807101 M1086.5523708833753,355.78530303345815 L1149.0988894808174,305.9061188847594 M1120.2965835987077,403.3433202120249 L1188.0345195369705,360.7807540907979 M1148.5038113092578,454.38045565886966 L1220.5813207414515,419.669756529465 M1170.8193317603511,508.254887783313 L1246.3299981850205,481.8325628268996 M1186.9625143345484,564.2891143427169 L1264.9567473090942,546.4874396262118 M1196.7303491444861,621.7784724262802 L1276.2273259359456,612.8213143380157 M1200.0,680.0000000000003 L1280.0,680.0000000000003 " stroke="green" stroke-width="3"></path>
<circle id="ring_8" r="680" cx="680" cy="680" stroke-width="3" fill="none" stroke="green"></circle>
<path id="ring_8_path" d="M1277.1108360033181,738.8102841977363 L1356.725614137094,746.6516554241012 M1268.4711682419384,797.0541932096769 L1346.9339906741966,812.6614189709672 M1254.1642014393253,854.1708063526773 L1330.7194282979021,877.3935805330344 M1234.3277195067722,909.6100594190539 L1308.238082107675,940.2247340082611 M1209.152758609013,962.8380420955987 L1279.7064597568815,1000.5497810416784 M1178.8817673815272,1013.3421398117613 L1245.3993363657307,1057.7877584533294 M1143.8062720176422,1060.6359704981874 L1205.647108286661,1111.387433231279 M1104.2640687119285,1104.2640687119285 L1160.8326112068523,1160.8326112068523 M1060.6359704981874,1143.8062720176422 L1111.387433231279,1205.647108286661 M1013.3421398117614,1178.8817673815272 L1057.7877584533296,1245.3993363657307 M962.8380420955986,1209.152758609013 L1000.5497810416784,1279.7064597568815 M909.6100594190539,1234.3277195067722 L940.2247340082611,1308.238082107675 M854.1708063526773,1254.1642014393253 L877.3935805330344,1330.7194282979021 M797.054193209677,1268.4711682419384 L812.6614189709672,1346.9339906741966 M738.8102841977363,1277.1108360033181 L746.6516554241011,1356.725614137094 M680.0,1280.0 L680.0,1360.0 M621.1897158022637,1277.1108360033181 L613.3483445758988,1356.725614137094 M562.9458067903231,1268.4711682419384 L547.3385810290329,1346.9339906741966 M505.82919364732254,1254.1642014393253 L482.6064194669656,1330.7194282979021 M450.38994058094613,1234.3277195067722 L419.775265991739,1308.238082107675 M397.1619579044014,1209.152758609013 L359.45021895832156,1279.7064597568815 M346.6578601882386,1178.881767381527 L302.21224154667044,1245.3993363657307 M299.36402950181275,1143.8062720176422 L248.61256676872114,1205.6471082866613 M255.73593128807153,1104.2640687119285 L199.16738879314772,1160.8326112068523 M216.1937279823578,1060.6359704981874 L154.35289171333886,1111.387433231279 M181.1182326184728,1013.3421398117613 L114.60066363426915,1057.7877584533294 M150.84724139098705,962.8380420955987 L80.29354024311863,1000.5497810416786 M125.67228049322796,909.6100594190539 L51.76191789232507,940.2247340082611 M105.83579856067468,854.1708063526775 L29.280571702097973,877.3935805330344 M91.52883175806176,797.0541932096769 L13.066009325803293,812.6614189709671 M82.88916399668187,738.8102841977365 L3.274385862906115,746.6516554241014 M80.0,680.0000000000001 L0.0,680.0000000000001 M82.88916399668187,621.1897158022637 L3.274385862906115,613.3483445758988 M91.52883175806176,562.945806790323 L13.066009325803293,547.3385810290328 M105.83579856067468,505.82919364732277 L29.280571702097973,482.6064194669658 M125.67228049322784,450.3899405809462 L51.76191789232496,419.77526599173905 M150.84724139098694,397.1619579044014 L80.29354024311851,359.4502189583216 M181.11823261847286,346.6578601882386 L114.60066363426927,302.21224154667044 M216.19372798235776,299.36402950181287 L154.35289171333875,248.6125667687212 M255.7359312880714,255.73593128807153 L199.16738879314755,199.16738879314772 M299.36402950181247,216.19372798235798 L248.61256676872074,154.3528917133391 M346.6578601882387,181.11823261847286 L302.2122415466705,114.60066363426927 M397.1619579044013,150.84724139098705 L359.45021895832144,80.29354024311863 M450.3899405809463,125.67228049322784 L419.77526599173916,51.76191789232496 M505.82919364732254,105.83579856067468 L482.6064194669656,29.280571702097973 M562.9458067903228,91.52883175806176 L547.3385810290325,13.066009325803407 M621.1897158022638,82.88916399668187 L613.3483445758989,3.274385862906115 M679.9999999999999,80.0 L679.9999999999999,0.0 M738.8102841977361,82.88916399668187 L746.6516554241009,3.274385862906115 M797.054193209677,91.52883175806176 L812.6614189709672,13.066009325803293 M854.1708063526772,105.83579856067468 L877.3935805330342,29.280571702097973 M909.610059419054,125.67228049322807 L940.2247340082612,51.76191789232507 M962.8380420955986,150.84724139098694 L1000.5497810416784,80.29354024311851 M1013.3421398117612,181.11823261847275 L1057.7877584533294,114.60066363426904 M1060.6359704981874,216.19372798235787 L1111.387433231279,154.35289171333898 M1104.2640687119283,255.7359312880714 L1160.832611206852,199.16738879314755 M1143.8062720176424,299.36402950181287 L1205.6471082866613,248.6125667687212 M1178.8817673815272,346.6578601882387 L1245.3993363657307,302.2122415466705 M1209.1527586090128,397.1619579044012 L1279.7064597568813,359.45021895832144 M1234.3277195067722,450.38994058094625 L1308.238082107675,419.7752659917391 M1254.1642014393253,505.82919364732254 L1330.7194282979021,482.60641946696546 M1268.4711682419384,562.9458067903228 L1346.9339906741966,547.3385810290324 M1277.1108360033181,621.1897158022637 L1356.725614137094,613.3483445758989 M1280.0,679.9999999999999 L1360.0,679.9999999999999 M1277.1108360033181,738.8102841977366 L1356.725614137094,746.6516554241014 " stroke="green" stroke-width="3"></path>
	</svg>
	